<?xml version="1.0" encoding="UTF-8"?>
<svg version="1.1" xmlns="http://www.w3.org/2000/svg" width="278" height="45">
<path d="M0 0 C0.66 0.66 1.32 1.32 2 2 C2.33 1.34 2.66 0.68 3 0 C4.95803507 -0.05389087 6.91648909 -0.09274217 8.875 -0.125 C10.51082031 -0.15980469 10.51082031 -0.15980469 12.1796875 -0.1953125 C15 0 15 0 17 2 C17.125 4.875 17.125 4.875 17 8 C16.78918149 11.89459074 16.78918149 11.89459074 18 15 C16.02 15 14.04 15 12 15 C11.34 13.68 10.68 12.36 10 11 C9.34 11 8.68 11 8 11 C8 12.32 8 13.64 8 15 C6.35 15 4.7 15 3 15 C2.67 14.01 2.34 13.02 2 12 C1.67 12.495 1.34 12.99 1 13.5 C-1.61179291 15.45884468 -3.85183097 15.48548537 -7.05859375 15.34375 C-9 15 -9 15 -11.5 13.4375 C-13.50478781 10.17971981 -13.28862859 7.75217167 -13 4 C-14.32 4 -15.64 4 -17 4 C-17 7.63 -17 11.26 -17 15 C-18.65 15 -20.3 15 -22 15 C-22 11.37 -22 7.74 -22 4 C-23.32 4 -24.64 4 -26 4 C-26 2.68 -26 1.36 -26 0 C-21.71 0 -17.42 0 -13 0 C-12.67 0.66 -12.34 1.32 -12 2 C-11.319375 1.484375 -10.63875 0.96875 -9.9375 0.4375 C-6.15490948 -1.41355493 -4.03332301 -0.98930565 0 0 Z M-7 4 C-7.33 5.65 -7.66 7.3 -8 9 C-6.515 9.99 -6.515 9.99 -5 11 C-4.01 10.34 -3.02 9.68 -2 9 C-2.33 7.68 -2.66 6.36 -3 5 C-4.32 4.67 -5.64 4.34 -7 4 Z M8 4 C8 4.99 8 5.98 8 7 C9.32 6.67 10.64 6.34 12 6 C11.67 5.34 11.34 4.68 11 4 C10.01 4 9.02 4 8 4 Z " fill="#12284C" transform="translate(108,16)"/>
<path d="M0 0 C1.98 0 3.96 0 6 0 C7.875 2.5 7.875 2.5 9 5 C9.66 3.35 10.32 1.7 11 0 C14.63 0 18.26 0 22 0 C22.33 3.63 22.66 7.26 23 11 C24.65 7.37 26.3 3.74 28 0 C29.65 0 31.3 0 33 0 C34.00732399 1.93370231 35.00563288 3.87210306 36 5.8125 C36.556875 6.89144531 37.11375 7.97039063 37.6875 9.08203125 C39 12 39 12 39 15 C37.35 15 35.7 15 34 15 C33.505 13.515 33.505 13.515 33 12 C31.35 12 29.7 12 28 12 C28 12.99 28 13.98 28 15 C24.37 15 20.74 15 17 15 C16.67 11.37 16.34 7.74 16 4 C14.35 7.63 12.7 11.26 11 15 C9.35 15 7.7 15 6 15 C4.02 10.05 2.04 5.1 0 0 Z " fill="#12284C" transform="translate(45,16)"/>
<path d="M0 0 C1.32 0 2.64 0 4 0 C4.33 1.65 4.66 3.3 5 5 C6.98 5 8.96 5 11 5 C10.66666667 6.66666667 10.33333333 8.33333333 10 10 C9.7834375 11.2684375 9.7834375 11.2684375 9.5625 12.5625 C9.00704803 14.96945855 8.19518145 16.84867339 7 19 C6.0925 18.62875 5.185 18.2575 4.25 17.875 C1.12552291 16.67863398 1.12552291 16.67863398 -1.25 17.9375 C-1.8275 18.288125 -2.405 18.63875 -3 19 C-3.66 18.67 -4.32 18.34 -5 18 C-4.938125 17.071875 -4.87625 16.14375 -4.8125 15.1875 C-5.02734425 11.53514782 -5.5287273 11.36382606 -8 9 C-7.6875 6.8125 -7.6875 6.8125 -7 5 C-5.35 5 -3.7 5 -2 5 C-1.34 3.35 -0.68 1.7 0 0 Z " fill="#12284C" transform="translate(18,14)"/>
<path d="M0 0 C2.64 0 5.28 0 8 0 C8 0.66 8 1.32 8 2 C6.02 2 4.04 2 2 2 C2 2.99 2 3.98 2 5 C3.98 5 5.96 5 8 5 C8 4.34 8 3.68 8 3 C8.66 3 9.32 3 10 3 C10.33 4.32 10.66 5.64 11 7 C11.66 7 12.32 7 13 7 C13.33 5.68 13.66 4.36 14 3 C17.66666667 3 21.33333333 3 25 3 C26.134375 2.938125 27.26875 2.87625 28.4375 2.8125 C32 3 32 3 33.9375 4.5 C34.288125 4.995 34.63875 5.49 35 6 C35.33 5.01 35.66 4.02 36 3 C36.66 3 37.32 3 38 3 C37.45660208 7.56454251 36.20536179 10.9728176 34 15 C33.34 15 32.68 15 32 15 C31.505 10.05 31.505 10.05 31 5 C30.01 5 29.02 5 28 5 C27.67 7.31 27.34 9.62 27 12 C25.68 12 24.36 12 23 12 C21.7315625 12.12375 21.7315625 12.12375 20.4375 12.25 C18 12 18 12 16.1875 10 C15.795625 9.34 15.40375 8.68 15 8 C14.34 9.32 13.68 10.64 13 12 C10 11 10 11 8.8125 8.9375 C8.4103125 7.9784375 8.4103125 7.9784375 8 7 C6.02 7 4.04 7 2 7 C2 7.99 2 8.98 2 10 C3.98 10 5.96 10 8 10 C8 10.66 8 11.32 8 12 C5.36 12 2.72 12 0 12 C0 8.04 0 4.08 0 0 Z M18 8 C18.33 8.66 18.66 9.32 19 10 C20.32 9.67 21.64 9.34 23 9 C23 8.67 23 8.34 23 8 C21.35 8 19.7 8 18 8 Z " fill="#12284C" transform="translate(166,19)"/>
<path d="M0 0 C1.98 0 3.96 0 6 0 C6.83986084 1.93467942 7.67168027 3.87285129 8.5 5.8125 C8.9640625 6.89144531 9.428125 7.97039063 9.90625 9.08203125 C11 12 11 12 11 15 C9.35 15 7.7 15 6 15 C5.67 14.01 5.34 13.02 5 12 C3.35 12 1.7 12 0 12 C0 12.99 0 13.98 0 15 C-1.98 15 -3.96 15 -6 15 C-4.36041242 9.76727367 -2.61047965 4.84803364 0 0 Z " fill="#12284C" transform="translate(38,16)"/>
<path d="M0 0 C0.66 0 1.32 0 2 0 C2.33 1.65 2.66 3.3 3 5 C3.61875 4.67 4.2375 4.34 4.875 4 C7.85625765 2.59705522 10.72858726 3 14 3 C14.66 5.31 15.32 7.62 16 10 C14 12 14 12 11.8359375 12.1953125 C10.61777344 12.16050781 10.61777344 12.16050781 9.375 12.125 C8.55773437 12.10695313 7.74046875 12.08890625 6.8984375 12.0703125 C6.27195313 12.04710937 5.64546875 12.02390625 5 12 C4.67 11.01 4.34 10.02 4 9 C3.34 9 2.68 9 2 9 C2 9.99 2 10.98 2 12 C1.34 12 0.68 12 0 12 C0 8.04 0 4.08 0 0 Z M6 5 C6 6.32 6 7.64 6 9 C6.33 7.68 6.66 6.36 7 5 C6.67 5 6.34 5 6 5 Z M9 8 C9.33 8.66 9.66 9.32 10 10 C11.32 9.67 12.64 9.34 14 9 C14 8.67 14 8.34 14 8 C12.35 8 10.7 8 9 8 Z " fill="#12284C" transform="translate(223,19)"/>
<path d="M0 0 C2.64 0 5.28 0 8 0 C8 0.66 8 1.32 8 2 C6.02 2 4.04 2 2 2 C2 2.99 2 3.98 2 5 C6.34184202 4.81535634 6.34184202 4.81535634 10 3 C12.4375 2.8125 12.4375 2.8125 15 3 C17 5 17 5 17.25 7.5 C17 10 17 10 15 12 C12.5 12.25 12.5 12.25 10 12 C9.34 11.34 8.68 10.68 8 10 C8 9.01 8 8.02 8 7 C6.02 7 4.04 7 2 7 C2 8.65 2 10.3 2 12 C1.34 12 0.68 12 0 12 C0 8.04 0 4.08 0 0 Z M11 5 C10.67 6.32 10.34 7.64 10 9 C11.32 9.33 12.64 9.66 14 10 C14.33 9.01 14.66 8.02 15 7 C14.67 6.34 14.34 5.68 14 5 C13.01 5 12.02 5 11 5 Z " fill="#12284C" transform="translate(139,19)"/>
<path d="M0 0 C3.5 -0.625 3.5 -0.625 7 0 C9.0625 2.125 9.0625 2.125 10 5 C8.8 10.2 8.8 10.2 7 12 C3.625 12.3125 3.625 12.3125 0 12 C-1.625 10 -1.625 10 -3 8 C-5.62625139 7.66574265 -5.62625139 7.66574265 -8 8 C-8 7.34 -8 6.68 -8 6 C-6.8553125 5.9071875 -6.8553125 5.9071875 -5.6875 5.8125 C-2.75730587 5.27206721 -2.75730587 5.27206721 -1.625 2.4375 C-1.08875 1.633125 -0.5525 0.82875 0 0 Z M0 3 C-0.2500773 5.45809998 -0.2500773 5.45809998 0 8 C0.66 8.66 1.32 9.32 2 10 C4.78237655 9.59471099 4.78237655 9.59471099 7 8 C7.16666667 5.5 7.16666667 5.5 7 3 C5.9404123 1.71677453 5.9404123 1.71677453 3.5 1.875 C1.0595877 1.71677453 1.0595877 1.71677453 0 3 Z " fill="#12284C" transform="translate(247,19)"/>
<path d="M0 0 C0.99 0 1.98 0 3 0 C2 3 2 3 1 4 C1.99 4 2.98 4 4 4 C4.33 2.68 4.66 1.36 5 0 C5.99 0 6.98 0 8 0 C7.67 0.99 7.34 1.98 7 3 C7.33 3.33 7.66 3.66 8 4 C8 4.66 8 5.32 8 6 C7.34 6 6.68 6 6 6 C6 8.31 6 10.62 6 13 C5.34 13 4.68 13 4 13 C4 10.69 4 8.38 4 6 C3.01 6 2.02 6 1 6 C1 8.31 1 10.62 1 13 C0.34 13 -0.32 13 -1 13 C-1.2236337 11.58566794 -1.42826476 10.16832382 -1.625 8.75 C-1.74101562 7.96109375 -1.85703125 7.1721875 -1.9765625 6.359375 C-2.00319395 3.67847541 -1.36592084 2.27305911 0 0 Z " fill="#12284C" transform="translate(259,18)"/>
<path d="M0 0 C1.66611905 -0.042721 3.33382885 -0.04063832 5 0 C6 1 6 1 6.09765625 2.84765625 C6.06510417 4.8984375 6.03255208 6.94921875 6 9 C3.69 9 1.38 9 -1 9 C-0.125 4.125 -0.125 4.125 1 3 C0.34 3 -0.32 3 -1 3 C-0.67 2.01 -0.34 1.02 0 0 Z " fill="#12284C" transform="translate(216,22)"/>
<path d="M0 0 C2.97 0 5.94 0 9 0 C9 0.66 9 1.32 9 2 C8.01 2 7.02 2 6 2 C6 5.3 6 8.6 6 12 C5.34 12 4.68 12 4 12 C4 8.7 4 5.4 4 2 C2.68 2 1.36 2 0 2 C0 1.34 0 0.68 0 0 Z " fill="#12284C" transform="translate(207,19)"/>
<path d="M0 0 C1.65 0 3.3 0 5 0 C5 0.66 5 1.32 5 2 C4.01 2.495 4.01 2.495 3 3 C2.34227572 6.02934491 2.34227572 6.02934491 2 9 C1.34 9 0.68 9 0 9 C0 6.03 0 3.06 0 0 Z " fill="#12284C" transform="translate(157,22)"/>
</svg>
